<?xml version="1.0" encoding="UTF-8"?>
<!DOCTYPE svg PUBLIC "-//W3C//DTD SVG 1.1//EN" "http://www.w3.org/Graphics/SVG/1.1/DTD/svg11.dtd">
<!-- Creator: CorelDRAW X5 -->
<svg xmlns="http://www.w3.org/2000/svg" xml:space="preserve" width="297mm" height="210mm" style="shape-rendering:geometricPrecision; text-rendering:geometricPrecision; image-rendering:optimizeQuality; fill-rule:evenodd; clip-rule:evenodd"
viewBox="0 0 297 210"
 xmlns:xlink="http://www.w3.org/1999/xlink">
 <defs>
  <style type="text/css">
   <![CDATA[
    .fil1 {fill:#5CA47A}
    .fil0 {fill:#A8CF45}
    .fil2 {fill:#A7C4D2;fill-rule:nonzero}
    .fil3 {fill:#BDD3DE;fill-rule:nonzero}
   ]]>
  </style>
     <mask id="id0">
  <linearGradient id="id1" gradientUnits="userSpaceOnUse" x1="75.6528" y1="134.582" x2="75.6528" y2="107.965">
   <stop offset="0" style="stop-opacity:1; stop-color:white"/>
   <stop offset="1" style="stop-opacity:0; stop-color:white"/>
  </linearGradient>
      <rect style="fill:url(#id1)" x="46.1002" y="104.538" width="59.1052" height="33.4711"/>
     </mask>
     <mask id="id2">
  <linearGradient id="id3" gradientUnits="userSpaceOnUse" x1="75.6528" y1="115.201" x2="75.6528" y2="84.419">
   <stop offset="0" style="stop-opacity:1; stop-color:white"/>
   <stop offset="1" style="stop-opacity:0; stop-color:white"/>
  </linearGradient>
      <rect style="fill:url(#id3)" x="46.1002" y="68.9278" width="59.1052" height="61.7647"/>
     </mask>
     <mask id="id4">
  <linearGradient id="id5" gradientUnits="userSpaceOnUse" x1="75.6528" y1="73.9152" x2="75.6528" y2="101.788">
   <stop offset="0" style="stop-opacity:1; stop-color:white"/>
   <stop offset="1" style="stop-opacity:0; stop-color:white"/>
  </linearGradient>
      <rect style="fill:url(#id5)" x="47.6238" y="71.9148" width="56.058" height="31.8732"/>
     </mask>
 </defs>
 <g id="Camada_x0020_1">
  <metadata id="CorelCorpID_0Corel-Layer"/>
  <g id="_7433672">
   <g>
    <path id="_7435592" class="fil0" d="M88.1183 81.8907l2.799 2.9354 -16.0783 0c-4.0405,0 -7.1816,0.4196 -9.4226,1.2515 -2.2324,0.8318 -3.9371,2.2332 -5.105,4.1965 -0.9432,1.4162 -1.4451,4.3766 -1.4969,8.8653l0 13.795 -6.3821 -6.6927 -6.2322 -6.5361 16.9871 -17.8149 12.4655 -12.8629 12.4655 12.8629zm7.8869 8.2713l9.1002 9.5436 -6.2322 6.5361 -23.2204 24.3508 -15.0652 -15.7986 5.5816 0 0 -12.3796 13.2514 0 0 -5.3357 -13.2514 0 0 -1.6037c0.0518,-2.3683 1.0471,-3.9042 2.9935,-4.5862 0.978,-0.442 3.1843,-0.6818 6.6108,-0.7267l20.2317 0z"/>
    <polygon id="_7435496" class="fil0" style="mask:url(#id0)" points="102.832,104.638 105.105,107.022 98.8732,113.558 75.6528,137.909 52.4324,113.558 46.2002,107.022 48.4737,104.638 52.4324,108.79 75.6528,133.141 98.8732,108.79 "/>
    <path id="_7435400" class="fil1" style="mask:url(#id2)" d="M88.1183 81.8907l2.799 2.9354 -16.0783 0c-4.0405,0 -7.1816,0.4196 -9.4226,1.2515 -2.2324,0.8318 -3.9371,2.2332 -5.105,4.1965 -0.9432,1.4162 -1.4451,4.3766 -1.4969,8.8653l0 13.795 -6.3821 -6.6927 -6.2322 -6.5361 16.9871 -17.8149 12.4655 -12.8629 12.4655 12.8629zm7.8869 8.2713l9.1002 9.5436 -6.2322 6.5361 -23.2204 24.3508 -15.0652 -15.7986 5.5816 0 0 -12.3796 13.2514 0 0 -5.3357 -13.2514 0 0 -1.6037c0.0518,-2.3683 1.0471,-3.9042 2.9935,-4.5862 0.978,-0.442 3.1843,-0.6818 6.6108,-0.7267l20.2317 0z"/>
    <path id="_7435304" class="fil0" style="mask:url(#id4)" d="M103.582 101.304l-4.7086 -4.9382 -5.9156 -6.2036 -4.5471 0 10.4627 10.972 2.4351 2.5541 2.2735 -2.3843zm-15.7123 -16.4776l-12.2167 -12.8113 -23.2204 24.3507 -4.7086 4.9382 2.2735 2.3843 2.4351 -2.5541 6.7124 -7.0391c0.2499,-1.7542 0.6393,-3.029 1.1666,-3.8207 1.1679,-1.9632 2.8726,-3.3647 5.105,-4.1965 0.5761,-0.2138 1.2121,-0.4004 1.9071,-0.5596l8.3293 -8.7348 7.6696 8.0429 4.5471 0z"/>
   </g>
   <path id="_7435160" class="fil2" d="M117.63 97.3387l-4.4393 0 0 -5.2463 4.4393 0 0 -1.4798c0,-2.6568 0.5633,-4.5907 1.6899,-5.7846 1.1267,-1.2022 2.9344,-1.7992 5.4315,-1.7992l5.9358 0 0 5.2464 -3.4219 0c-1.9759,-0.084 -2.9344,0.824 -2.8839,2.7073l0 1.1099 5.7396 0 0.583 0 10.8515 0c2.0347,0 3.4388,0.0336 4.2207,0.1092 0.7819,0.0757 1.5638,0.2354 2.3542,0.4793 3.7246,1.4125 5.4987,4.7924 5.3221,10.1313l0 13.8391 -14.2428 0c-2.5475,0 -4.3047,-0.0757 -5.28,-0.2186 -0.9837,-0.1513 -1.8413,-0.4708 -2.5811,-0.9669 -2.0011,-1.3452 -3.0016,-3.3714 -3.0016,-6.0787 0,-1.6564 0.3951,-3.1361 1.1939,-4.4225 0.7987,-1.2864 1.8413,-2.1608 3.1445,-2.6232 1.1434,-0.412 3.0604,-0.6138 5.734,-0.6138l8.2816 0c0,-1.7236 -0.3531,-2.8923 -1.0509,-3.4892 -0.6978,-0.597 -2.0599,-0.8997 -4.0946,-0.8997l-10.8515 0 -0.583 0 -5.7396 0 0 19.3126 -6.7514 0 0 -19.3126zm89.9461 4.3889c0,-1.7236 -0.3531,-2.8923 -1.051,-3.4892 -0.6978,-0.597 -2.0598,-0.8997 -4.0946,-0.8997l-11.1323 0 -0.3021 0 -5.9532 0 0 8.9206c0,2.0852 0.185,3.3968 0.5633,3.9349 0.5801,0.8072 1.5891,1.2107 3.0352,1.2107l0.7935 0c-0.1419,-0.6244 -0.2129,-1.2969 -0.2129,-2.0178 0,-1.6564 0.3952,-3.1361 1.1939,-4.4225 0.7988,-1.2864 1.8413,-2.1608 3.1445,-2.6232 1.1434,-0.412 3.0604,-0.6138 5.7341,-0.6138l8.2816 0zm-16.2779 -9.6352l11.1323 0c2.0348,0 3.4388,0.0336 4.2208,0.1092 0.7819,0.0757 1.5638,0.2354 2.3541,0.4793 3.7246,1.4125 5.4987,4.7924 5.3221,10.1313l0 13.8391 -14.2427 0c-2.5475,0 -4.3047,-0.0757 -5.28,-0.2186 -0.9838,-0.1513 -1.8414,-0.4708 -2.5812,-0.9669 -0.3369,-0.2264 -0.6452,-0.4722 -0.9254,-0.7373l0 1.9228 -4.9017 0c-2.9258,0 -5.0025,-0.7062 -6.2469,-2.1187 -1.236,-1.4125 -1.8581,-3.7751 -1.8581,-7.0961l0 -10.0978 -2.5194 0 -1.7602 0 -6.3448 0c-2.6905,0 -4.5739,0.6054 -5.6417,1.8245 -1.0005,1.1519 -1.5049,2.8923 -1.5049,5.2212 0,2.6401 0.824,4.557 2.4635,5.7425 0.6726,0.4877 1.4041,0.824 2.1944,1.0089 0.7903,0.1766 1.8917,0.2691 3.3042,0.2691l7.2895 0 0 5.2464 -9.2401 0c-2.4803,0 -4.4393,-0.2522 -5.8854,-0.7482 -1.4461,-0.5045 -2.7325,-1.3873 -3.8676,-2.6485 -2.1019,-2.3542 -3.1529,-5.3305 -3.1529,-8.9459 0,-4.3635 1.2612,-7.6342 3.7919,-9.8034 1.0006,-0.8659 2.2113,-1.4881 3.6237,-1.8581 1.4125,-0.3699 3.2454,-0.5548 5.4903,-0.5548l7.4799 0 1.7602 0 2.5194 0 0 -9.0636 6.7514 0 0 9.0636 5.9532 0 0.3021 0zm16.2779 14.8816l-7.8108 0 -1.135 -0.0252c-0.7735,0 -1.3873,0.2018 -1.8329,0.6138 -0.4541,0.4119 -0.681,0.9584 -0.681,1.6479 0,0.8071 0.2774,1.3704 0.8239,1.6984 0.5549,0.3279 1.4966,0.496 2.825,0.496l7.8108 0 0 -4.4309zm-60.8751 0l-7.8107 0 -1.1351 -0.0252c-0.7734,0 -1.3872,0.2018 -1.8329,0.6138 -0.454,0.4119 -0.681,0.9584 -0.681,1.6479 0,0.8071 0.2775,1.3704 0.824,1.6984 0.5549,0.3279 1.4966,0.496 2.825,0.496l7.8107 0 0 -4.4309z"/>
   <path id="_7435064" class="fil2" d="M186.81 127.095l0 -6.6617 1.416 0 0 6.6617 -1.416 0zm2.5697 -4.8659l4.9192 0c0.4481,0 0.7896,0.0333 1.0212,0.0982 0.2332,0.065 0.4281,0.1816 0.583,0.3515 0.2932,0.3182 0.4398,0.758 0.4398,1.3177l0 3.0985 -1.3376 0 0 -2.8886c0,-0.2349 -0.01,-0.3981 -0.0317,-0.4881 -0.0217,-0.0916 -0.0666,-0.1749 -0.1383,-0.2499 -0.1366,-0.1332 -0.3465,-0.1999 -0.6297,-0.1999l-0.7113 0 0 3.8265 -1.3377 0 0 -3.8265 -1.4392 0 0 3.8265 -1.3377 0 0 -4.8659zm11.397 1.909c0,-0.3415 -0.07,-0.573 -0.2083,-0.6913 -0.1382,-0.1183 -0.4081,-0.1783 -0.8112,-0.1783l-2.2656 0 0 -1.0394 2.2656 0c0.4031,0 0.6813,0.0066 0.8362,0.0216 0.1549,0.015 0.3099,0.0467 0.4665,0.095 0.7379,0.2798 1.0894,0.9495 1.0544,2.0073l0 2.742 -2.8219 0c-0.5048,0 -0.8529,-0.015 -1.0462,-0.0433 -0.1949,-0.03 -0.3648,-0.0933 -0.5114,-0.1916 -0.3965,-0.2665 -0.5947,-0.668 -0.5947,-1.2044 0,-0.3282 0.0783,-0.6214 0.2366,-0.8762 0.1582,-0.2549 0.3648,-0.4282 0.623,-0.5198 0.2265,-0.0816 0.6064,-0.1216 1.1361,-0.1216l1.6409 0zm0 1.0395l-1.5476 0 -0.2249 -0.005c-0.1533,0 -0.2749,0.04 -0.3632,0.1216 -0.0899,0.0816 -0.1349,0.1899 -0.1349,0.3265 0,0.1599 0.055,0.2716 0.1633,0.3365 0.1099,0.065 0.2965,0.0983 0.5597,0.0983l1.5476 0 0 -0.8779zm7.0675 -2.9485l0 4.8309c0,0.2749 -0.0317,0.5181 -0.0933,0.7297 -0.0617,0.2132 -0.1533,0.3948 -0.2782,0.5447 -0.15,0.1849 -0.3332,0.3148 -0.5514,0.3865 -0.2183,0.0716 -0.5331,0.1066 -0.9462,0.1066l-2.6687 0 0 -1.0395 2.4871 0c0.2932,0 0.4848,-0.045 0.5764,-0.1349 0.0916,-0.0883 0.1366,-0.2749 0.1366,-0.5581l-1.2294 0c-0.3932,0 -0.718,-0.0416 -0.9729,-0.1249 -0.2565,-0.0833 -0.4881,-0.2216 -0.6963,-0.4165 -0.4881,-0.4564 -0.7313,-1.0878 -0.7313,-1.8941 0,-0.9212 0.2965,-1.5925 0.8879,-2.0157 0.2149,-0.1499 0.4414,-0.2565 0.678,-0.3198 0.2382,-0.0633 0.5381,-0.0949 0.9029,-0.0949l2.4988 0zm-1.3377 1.0394l-1.1078 0c-0.7713,0 -1.1561,0.4648 -1.1561,1.396 0,0.4548 0.1033,0.8013 0.3115,1.0378 0.2082,0.2349 0.5131,0.3532 0.9129,0.3532l1.0395 0 0 -2.787zm2.473 -1.0394l1.3377 0 0 4.8659 -1.3377 0 0 -4.8659zm0 -0.4981l0 -1.2977 1.3377 0 0 1.2977 -1.3377 0zm2.4764 0.4981l2.5804 0c0.3848,0 0.678,0.0283 0.8829,0.0832 0.2049,0.055 0.3898,0.1583 0.5514,0.3066 0.3415,0.3098 0.5131,0.8029 0.5131,1.4792l0 2.9969 -1.3377 0 0 -3.1485c0,-0.2398 -0.0533,-0.4131 -0.1616,-0.5197 -0.1066,-0.105 -0.2815,-0.1583 -0.5264,-0.1583l-1.1644 0 0 3.8265 -1.3377 0 0 -4.8659zm9.5712 1.909l0 1.0395 -2.8203 0c0.025,0.3182 0.1282,0.5447 0.3098,0.678 0.1799,0.1333 0.4715,0.1999 0.8763,0.1999l1.6342 0 0 1.0395 -1.7808 0c-0.3882,0 -0.703,-0.035 -0.9446,-0.1033 -0.2432,-0.0683 -0.4731,-0.1849 -0.6913,-0.3498 -0.588,-0.4565 -0.8829,-1.1361 -0.8829,-2.0407 0,-0.593 0.1566,-1.1061 0.4681,-1.5426 0.2149,-0.2998 0.4714,-0.513 0.7713,-0.6396 0.2998,-0.1266 0.693,-0.1899 1.1811,-0.1899l1.8791 0 0 1.0394 -1.7808 0c-0.3649,0 -0.6214,0.0617 -0.7697,0.185 -0.1482,0.1249 -0.2382,0.3531 -0.2698,0.6846l2.8203 0zm1.9849 1.6592l0 1.2977 -1.2111 0 0 -1.2977 1.2111 0zm8.8249 -2.6404l0 1.1861 -3.973 0 0 2.752 -1.416 0 0 -3.48c0.01,-0.9978 0.1066,-1.6558 0.2882,-1.9707 0.2249,-0.4364 0.5531,-0.7479 0.9828,-0.9328 0.4315,-0.1849 1.0362,-0.2782 1.8142,-0.2782l2.3038 0 0 1.1861 -2.1239 0c-0.6597,0.0099 -1.0845,0.0633 -1.2727,0.1615 -0.3749,0.1516 -0.5664,0.4931 -0.5764,1.0195l0 0.3565 3.973 0zm4.7769 0.9812l0 1.0395 -2.8203 0c0.025,0.3182 0.1282,0.5447 0.3098,0.678 0.1799,0.1333 0.4715,0.1999 0.8763,0.1999l1.6342 0 0 1.0395 -1.7808 0c-0.3882,0 -0.703,-0.035 -0.9446,-0.1033 -0.2432,-0.0683 -0.4731,-0.1849 -0.6913,-0.3498 -0.588,-0.4565 -0.8829,-1.1361 -0.8829,-2.0407 0,-0.593 0.1566,-1.1061 0.4681,-1.5426 0.2149,-0.2998 0.4714,-0.513 0.7713,-0.6396 0.2998,-0.1266 0.693,-0.1899 1.1811,-0.1899l1.8791 0 0 1.0394 -1.7808 0c-0.3649,0 -0.6214,0.0617 -0.7697,0.185 -0.1482,0.1249 -0.2382,0.3531 -0.2698,0.6846l2.8203 0zm0.9204 -1.909l1.3377 0 0 4.8659 -1.3377 0 0 -4.8659zm0 -0.4981l0 -1.2977 1.3377 0 0 1.2977 -1.3377 0zm2.8262 0.4981l0 -1.7958 1.3377 0 0 1.7958 1.2394 0 0 1.0394 -1.2394 0 0 1.7675c0,0.4131 0.0366,0.673 0.1116,0.7796 0.1149,0.1599 0.3148,0.2399 0.6014,0.2399l0.5264 0 0 1.0395 -0.9712 0c-0.5797,0 -0.9912,-0.1399 -1.2377,-0.4198 -0.2449,-0.2799 -0.3682,-0.748 -0.3682,-1.406l0 -2.0007 -0.8479 0 0 -1.0394 0.8479 0zm5.4682 -0.0733c0.8979,0 1.5625,0.2598 1.9923,0.7812 0.3932,0.4748 0.5897,1.0695 0.5897,1.7858 0,0.7613 -0.2465,1.3677 -0.7413,1.8208 -0.4531,0.4165 -1.0728,0.6247 -1.8607,0.6247 -0.8129,0 -1.451,-0.2332 -1.9124,-0.698 -0.4231,-0.4265 -0.6347,-1.0395 -0.6347,-1.8408 0,-0.683 0.2032,-1.251 0.6097,-1.7025 0.4531,-0.5047 1.1045,-0.7613 1.9574,-0.7712zm0.01 1.0245c-0.8046,0 -1.2061,0.4997 -1.2061,1.4992 0,0.4065 0.065,0.7163 0.1949,0.9279 0.2182,0.3582 0.5581,0.5364 1.0212,0.5364 0.7946,0 1.1911,-0.4964 1.1911,-1.4893 0,-0.9728 -0.3999,-1.4643 -1.2011,-1.4742zm4.4487 2.617l0 1.2977 -1.2111 0 0 -1.2977 1.2111 0z"/>
   <path id="_7433696" class="fil2" d="M225.762 116.651l0 -27.6758 -9.9738 0 0 -2.4456c0,-0.9848 0.3422,-1.811 1.0266,-2.4954 0.6845,-0.6843 1.519,-1.0266 2.4955,-1.0266l23.2774 0 0 5.9676 -9.8818 0 0 27.6758 -6.9439 0zm18.0944 0l0 -30.1214c0,-0.9848 0.3422,-1.811 1.0266,-2.4954 0.6845,-0.6843 1.519,-1.0266 2.4955,-1.0266l3.422 0 0 33.6434 -6.9441 0z"/>
   <path id="_7434944" class="fil3" d="M225.762 105.641l0 -16.6656 -9.9738 0 0 -2.4456c0,-0.9848 0.3422,-1.811 1.0266,-2.4954 0.6845,-0.6843 1.519,-1.0266 2.4955,-1.0266l23.2774 0 0 5.9676 -9.8818 0 0 15.9287c-2.2441,0.3039 -4.5627,0.5464 -6.9439,0.7369zm-108.131 -8.3025l-4.4392 0 0 -5.2464 4.4392 0 0 -1.4797c0,-2.6567 0.5634,-4.5906 1.69,-5.7847 1.1268,-1.2022 2.9344,-1.7991 5.4314,-1.7991l5.9358 0 0 5.2463 -3.4219 0c-1.9757,-0.0839 -2.9342,0.824 -2.8837,2.7075l0 1.1097 5.7395 0 0.5831 0 10.8512 0c2.035,0 3.4389,0.0337 4.221,0.1093 0.7818,0.0759 1.5637,0.2356 2.3541,0.4794 3.7247,1.4124 5.4987,4.7923 5.3223,10.1313l0 1.2133c-8.1558,-0.2546 -16.0235,-0.3006 -23.3069,0.099 0.6991,-0.8354 1.5433,-1.4297 2.5396,-1.7831 1.1434,-0.412 3.0603,-0.6138 5.7342,-0.6138l8.2815 0c0,-1.7237 -0.3532,-2.8924 -1.0512,-3.4894 -0.6977,-0.5971 -2.0596,-0.8996 -4.0946,-0.8996l-10.8512 0 -0.5831 0 -5.7395 0 0 7.2145c-2.3282,0.2204 -4.5831,0.4964 -6.7516,0.8393l0 -8.0538zm96.6977 8.838c-7.7709,0.144 -15.9782,-0.0804 -24.3312,-0.4415 0.1248,-0.2641 0.2644,-0.5209 0.4194,-0.7706 0.7991,-1.2865 1.8415,-2.1608 3.1446,-2.6231 1.1434,-0.412 3.0606,-0.6138 5.734,-0.6138l8.2817 0c0,-1.7237 -0.353,-2.8924 -1.0509,-3.4894 -0.6979,-0.5971 -2.0597,-0.8996 -4.0946,-0.8996l-11.1324 0 -0.3021 0 -5.9532 0 0 8.1694c-2.2464,-0.1083 -4.4985,-0.2223 -6.7514,-0.3389l0 -7.8305 -2.5194 0 -1.7602 0 -6.3449 0c-2.6903,0 -4.5736,0.6054 -5.6415,1.8244 -0.987,1.1363 -1.4911,2.8456 -1.5046,5.1274 -2.3153,-0.099 -4.6157,-0.1877 -6.893,-0.2596 0.0527,-4.2247 1.3135,-7.4026 3.7899,-9.5255 1.0007,-0.866 2.2112,-1.4884 3.624,-1.8583 1.4123,-0.3696 3.2455,-0.5548 5.4903,-0.5548l7.4798 0 1.7602 0 2.5194 0 0 -9.0635 6.7514 0 0 9.0635 5.9532 0 0.3021 0 11.1324 0c2.0349,0 3.4387,0.0337 4.2205,0.1093 0.7821,0.0759 1.5639,0.2356 2.3541,0.4794 3.7248,1.4124 5.499,4.7923 5.3224,10.1313l0 3.3644zm36.4722 -5.9684c-2.1537,0.9516 -4.4735,1.7675 -6.9441,2.4595l0 -16.1378c0,-0.9848 0.3422,-1.811 1.0266,-2.4954 0.6845,-0.6843 1.519,-1.0266 2.4955,-1.0266l3.422 0 0 17.2003z"/>
  </g>
 </g>
</svg>
